<svg width="420" height="420" viewBox="0 0 420 420" fill="none" xmlns="http://www.w3.org/2000/svg">
<rect x="14.5" y="13.5" width="393" height="393" rx="29" fill="url(#paint0_linear_2_40)" stroke="#232F3A" stroke-width="2"/>
<path d="M128.031 339.918C122.839 347.12 126.994 357.269 135.744 358.764L273.525 382.302C278.04 383.073 282.601 381.207 285.28 377.491L383.602 241.114C388.819 233.878 384.596 223.681 375.791 222.251L237.253 199.757C232.767 199.028 228.254 200.897 225.596 204.584L128.031 339.918ZM185.446 335.857C178.546 345.429 165.704 351.17 156.753 348.679C147.81 346.187 146.146 336.415 153.051 326.843C159.951 317.271 172.794 311.53 181.745 314.021C190.695 316.512 192.345 326.286 185.446 335.857ZM238.509 345.303C231.609 354.874 218.767 360.615 209.815 358.125C200.872 355.632 199.208 345.86 206.114 336.288C213.021 326.715 225.856 320.975 234.807 323.466C243.752 325.958 245.409 335.731 238.509 345.303ZM326.973 250.133C333.874 240.562 346.716 234.82 355.667 237.311C364.61 239.803 366.274 249.576 359.375 259.147C352.477 268.718 339.633 274.46 330.682 271.969C321.731 269.478 320.075 259.704 326.973 250.133ZM274.242 241.796C281.142 232.224 293.985 226.483 302.936 228.974C311.879 231.466 313.543 241.238 306.637 250.81C299.737 260.382 286.895 266.123 277.944 263.632C269.001 261.14 267.344 251.367 274.242 241.796ZM287.54 331.803C296.483 334.296 298.147 344.068 291.241 353.64C284.341 363.211 271.499 368.953 262.548 366.462C253.597 363.971 251.941 354.197 258.839 344.626C265.748 335.062 278.59 329.319 287.54 331.803ZM249.871 219.522C258.814 222.014 260.478 231.786 253.572 241.358C246.672 250.93 233.83 256.671 224.879 254.18C215.936 251.688 214.272 241.916 221.177 232.344C228.077 222.772 240.922 217.037 249.871 219.522Z" fill="#007AFF"/>
<path d="M370.741 202.293C380.502 203.878 387.884 193.64 383.296 184.88L320.798 65.5654C319.046 62.2196 315.82 59.8941 312.092 59.2886L179.139 37.6955C169.379 36.1102 161.997 46.3487 166.586 55.1084L229.082 174.417C230.835 177.763 234.06 180.088 237.788 180.694L370.741 202.293ZM260.299 103.781C265.124 97.0876 277.06 97.4395 286.959 104.577C296.858 111.715 300.971 122.927 296.14 129.62C291.314 136.313 279.379 135.961 269.479 128.823C259.579 121.687 255.466 110.474 260.299 103.781Z" fill="#007AFF"/>
<path d="M146.047 56.6172C141.908 48.7154 130.901 47.9318 125.684 55.1675L27.3602 191.539C24.681 195.255 24.3512 200.173 26.5102 204.213L92.3926 327.506C96.5766 335.336 107.52 336.07 112.711 328.868L210.274 193.521C212.932 189.834 213.279 184.962 211.17 180.936L146.047 56.6172ZM117.879 289.183C110.979 298.754 101.176 300.272 95.9903 292.565C90.8054 284.86 92.187 270.862 99.0871 261.29C105.987 251.719 115.79 250.202 120.974 257.901C126.158 265.601 124.779 279.612 117.879 289.183ZM137.127 120.43C130.227 130.002 120.424 131.518 115.24 123.82C110.049 116.123 111.437 102.116 118.337 92.5444C125.237 82.9731 135.04 81.4571 140.224 89.1552C145.417 96.8589 144.027 110.859 137.127 120.43Z" fill="#007AFF"/>
<defs>
<linearGradient id="paint0_linear_2_40" x1="261.96" y1="12.7734" x2="106.357" y2="397.89" gradientUnits="userSpaceOnUse">
<stop stop-color="#232F3A"/>
<stop offset="0.78" stop-color="#151A23"/>
</linearGradient>
</defs>
</svg>
